<?xml version="1.0" encoding="utf-8"?>
<!-- Generator: Adobe Illustrator 19.0.0, SVG Export Plug-In . SVG Version: 6.00 Build 0)  -->
<svg version="1.1" id="Layer_1" xmlns="http://www.w3.org/2000/svg" xmlns:xlink="http://www.w3.org/1999/xlink" x="0px" y="0px"
	 viewBox="0 0 24 24" style="enable-background:new 0 0 24 24;" xml:space="preserve">
<style type="text/css">
	.st0{fill:#262626;}
</style>
<g id="XMLID_242_">
	<g id="XMLID_160_">
		<g id="XMLID_164_">
			<path id="XMLID_166_" class="st0" d="M23.9,7.3c0-0.8-0.1-1.5-0.3-2.3c-0.4-1.7-1.4-3.1-2.9-4c-1.1-0.6-2.2-0.9-3.5-1
				C16.2,0,15.1,0,14.1,0c-2.3,0-4.5,0-6.8,0.1C6.5,0.1,5.8,0.2,5,0.4C3.3,0.8,2,1.7,1.1,3.2c-0.6,1.1-0.9,2.2-1,3.5
				C0,7.8,0,8.9,0,10.1c0,2.2,0,4.4,0.1,6.6c0,0.7,0.1,1.3,0.2,2c0.3,1.5,1,2.8,2.2,3.8c1.1,0.9,2.4,1.3,3.8,1.4
				C7.5,24,8.6,24,9.7,24c0.7,0,1.5,0,2.2,0c1.6,0,3.1,0,4.7-0.1c0.8,0,1.5-0.1,2.3-0.3c1.7-0.4,3.1-1.4,4-2.9
				c0.6-1.1,0.9-2.2,1-3.5C24,16.2,24,15,24,13.9C24,11.7,24,9.5,23.9,7.3z M21.9,15.1c0,0.9,0,1.8-0.2,2.7c-0.2,1.2-0.7,2.3-1.7,3
				c-0.6,0.5-1.4,0.7-2.1,0.8c-0.6,0.1-1.1,0.1-1.7,0.1c-2.5,0.1-4.9,0-7.4,0c-1,0-1.9,0-2.8-0.2c-1.1-0.2-2.1-0.7-2.8-1.6
				c-0.5-0.7-0.7-1.4-0.9-2.2c-0.1-0.6-0.1-1.1-0.1-1.7c-0.1-1.6,0-3.2,0-4.8c0-0.8,0-1.7,0-2.5c0-0.9,0-1.8,0.2-2.7
				C2.5,4.9,3,3.9,4,3.1c0.6-0.5,1.4-0.7,2.1-0.8c0.6-0.1,1.2-0.1,1.7-0.1c2.4-0.1,4.8,0,7.2,0c1,0,2,0,3,0.2
				C19.2,2.5,20.2,3,20.9,4c0.5,0.6,0.7,1.4,0.8,2.1c0.1,0.6,0.1,1.1,0.1,1.7c0.1,1.4,0,2.8,0,4.2C21.9,13,21.9,14.1,21.9,15.1z"/>
			<path id="XMLID_165_" class="st0" d="M18.4,4.2c-0.8,0-1.4,0.7-1.4,1.4C17,6.4,17.6,7,18.4,7c0.8,0,1.4-0.6,1.4-1.4
				C19.8,4.8,19.2,4.2,18.4,4.2z"/>
		</g>
		<path id="XMLID_161_" class="st0" d="M12,5.9c-3.4,0-6.1,2.7-6.2,6.1c0,3.4,2.7,6.1,6.1,6.2c3.4,0,6.1-2.7,6.2-6.1
			C18.2,8.6,15.4,5.9,12,5.9z M12,16c-2.2,0-4-1.8-4-4c0-2.2,1.8-4,4-4c2.2,0,4,1.8,4,4C16,14.2,14.2,16,12,16z"/>
	</g>
</g>
</svg>
