<?xml version="1.0" encoding="utf-8"?>
<!-- Generator: Adobe Illustrator 19.0.0, SVG Export Plug-In . SVG Version: 6.00 Build 0)  -->
<svg version="1.1" id="Layer_1" xmlns="http://www.w3.org/2000/svg" xmlns:xlink="http://www.w3.org/1999/xlink" x="0px" y="0px"
	 viewBox="0 0 27.3 16" style="enable-background:new 0 0 27.3 16;" xml:space="preserve">
<style type="text/css">
	.st0{fill:#262626;}
</style>
<path id="XMLID_106_" class="st0" d="M22.7,7.8c0,0,3.6-5.1,4-6.7c0.1-0.6-0.1-0.9-0.8-0.9c0,0-2.1,0-3.1,0c-0.7,0-1,0.3-1.2,0.8
	c0,0-1.7,3.6-3.7,5.9c-0.7,0.7-1,1-1.4,1c-0.3,0-0.4-0.2-0.4-0.9V1c0-0.8-0.1-1-0.8-1h-5C9.9,0,9.7,0.2,9.7,0.5c0,0.8,1.2,0.9,1.2,3
	v4.3c0,0.9,0,1.2-0.5,1.2C9.3,9,6.7,5.3,5.3,1.1C5,0.2,4.7,0,3.9,0H0.8C0.3,0,0,0.3,0,0.8c0,0.8,1,4.7,4.8,9.9c2.6,3.5,6,5.4,9,5.4
	c1.9,0,2.3-0.3,2.3-1.1v-2.7c0-0.7,0.3-1,0.6-1c0.4,0,1.2,0.1,3,1.9c2.1,2,2.2,2.8,3.4,2.8h3.5c0.4,0,0.7-0.2,0.7-0.8
	c0-0.8-1-2.2-2.6-3.9c-0.6-0.9-1.7-1.8-2-2.2C22.2,8.7,22.4,8.4,22.7,7.8z"/>
</svg>
